<svg width="165" height="22" viewBox="0 0 165 22" fill="none" xmlns="http://www.w3.org/2000/svg">
<g clip-path="url(#clip0_1_2)">
<g clip-path="url(#clip1_1_2)">
<path d="M155 2C149.494 2 145 6.466 145 12C145 17.506 149.466 22 155 22C160.506 22 165 17.534 165 12C165 6.466 160.534 2 155 2ZM155 16.972C152.247 16.972 150 14.725 150 11.972C150 9.219 152.247 6.972 155 6.972C157.753 6.972 160 9.219 160 11.972C160 14.752 157.753 16.972 155 16.972ZM140.472 2H125.5C124.837 2.00211 124.202 2.26673 123.733 2.73598C123.265 3.20523 123.001 3.84091 123 4.504C123.001 5.16691 123.265 5.80234 123.734 6.27137C124.202 6.7404 124.837 7.00489 125.5 7.007H130.5V19.497C130.501 20.1599 130.765 20.7953 131.234 21.2644C131.702 21.7334 132.337 21.9979 133 22C134.376 22 135.5 20.875 135.5 19.497V7.007H140.5C141.876 7.007 143 5.882 143 4.504C142.972 3.125 141.848 2 140.472 2Z" fill="#07B2FD"/>
<path fill-rule="evenodd" clip-rule="evenodd" d="M102.5 7C103.163 7 103.799 6.73661 104.268 6.26777C104.737 5.79893 105 5.16304 105 4.5C105 3.83696 104.737 3.20107 104.268 2.73223C103.799 2.26339 103.163 2 102.5 2C101.837 2 101.201 2.26339 100.732 2.73223C100.263 3.20107 100 3.83696 100 4.5C100 5.16304 100.263 5.79893 100.732 6.26777C101.201 6.73661 101.837 7 102.5 7ZM117.5 9C116.124 9 115 10.168 115 11.6C115 14.463 112.753 16.8 110 16.8C107.247 16.8 105 14.463 105 11.6C105 10.169 103.876 9 102.5 9C101.124 9 100 10.168 100 11.6C100 17.326 104.466 22 110 22C115.506 22 120 17.355 120 11.6C120 10.14 118.876 9 117.5 9ZM120 4.5C120 5.16304 119.737 5.79893 119.268 6.26777C118.799 6.73661 118.163 7 117.5 7C116.837 7 116.201 6.73661 115.732 6.26777C115.263 5.79893 115 5.16304 115 4.5C115 3.83696 115.263 3.20107 115.732 2.73223C116.201 2.26339 116.837 2 117.5 2C118.163 2 118.799 2.26339 119.268 2.73223C119.737 3.20107 120 3.83696 120 4.5Z" fill="#07B2FD"/>
<path d="M87 2C81.494 2 77 6.466 77 12C77 17.506 81.466 22 87 22C88.91 22 90.708 21.466 92.225 20.511C92.618 21.382 93.489 22 94.5 22C95.876 22 97 20.876 97 19.5V11.972C97 6.466 92.534 2 87 2ZM87 16.972C84.247 16.972 82 14.725 82 11.972C82 9.219 84.247 6.972 87 6.972C89.753 6.972 92 9.219 92 11.972C92 14.752 89.753 16.972 87 16.972Z" fill="#07B2FD"/>
<path d="M71.5 2C70.8368 2.00185 70.2014 2.26639 69.7329 2.73569C69.2643 3.205 69.0008 3.84083 69 4.504V19.497C69.0011 20.16 69.2647 20.7956 69.7332 21.2647C70.2017 21.7338 70.837 21.9981 71.5 22C72.876 22 74 20.875 74 19.497V4.504C73.9992 3.84083 73.7357 3.205 73.2671 2.73569C72.7986 2.26639 72.1632 2.00185 71.5 2ZM56 2.444C54.174 2.444 52.489 2.939 51 3.763V2.444C51 1.1 49.876 0 48.5 0C47.124 0 46 1.099 46 2.444V12.222C46 17.605 50.466 22 56 22C61.506 22 66 17.633 66 12.222C65.972 6.812 61.506 2.444 56 2.444ZM56 17.084C53.247 17.084 51 14.886 51 12.194C51 9.504 53.247 7.306 56 7.306C58.753 7.306 61 9.503 61 12.195C60.972 14.914 58.753 17.084 56 17.084ZM33 2C27.466 2 23 6.473 23 11.986C23 17.527 27.466 22 33 22C38.506 22 43 17.527 43 11.986C42.972 6.473 38.506 2 33 2ZM33 16.993C30.247 16.993 28 14.743 28 11.986C28 9.229 30.247 6.979 33 6.979C35.753 6.979 38 9.229 38 11.986C37.972 14.771 35.753 16.993 33 16.993ZM13.736 2C12.386 2.00161 11.0737 2.4456 10 3.264C8.92633 2.4456 7.61403 2.00161 6.26401 2C5.44243 1.99525 4.62804 2.1531 3.86774 2.46446C3.10744 2.77582 2.41626 3.23454 1.83401 3.81418C1.25177 4.39383 0.789961 5.08295 0.475198 5.84184C0.160435 6.60074 -0.0010638 7.41442 5.27313e-06 8.236V19.472C5.27313e-06 20.848 1.12401 21.972 2.50001 21.972C3.87601 21.972 5.00001 20.848 5.00001 19.472V8.236C5.00001 7.534 5.56201 6.972 6.23601 6.972C6.93801 6.972 7.50001 7.534 7.50001 8.236V19.472C7.50001 20.848 8.62401 21.972 10 21.972C11.376 21.972 12.5 20.848 12.5 19.472V8.208C12.5086 7.88548 12.6424 7.57898 12.8732 7.35348C13.1039 7.12797 13.4134 7.00119 13.736 7C14.438 7 15 7.562 15 8.264V19.5C15 20.876 16.124 22 17.5 22C18.876 22 20 20.876 20 19.5V8.236C19.972 4.781 17.191 2 13.736 2Z" fill="#333333"/>
</g>
</g>
<defs>
<clipPath id="clip0_1_2">
<rect width="165" height="22" fill="white"/>
</clipPath>
<clipPath id="clip1_1_2">
<rect width="165" height="22" fill="white"/>
</clipPath>
</defs>
</svg>
